<svg xmlns="http://www.w3.org/2000/svg" width="135" height="22" viewBox="0 0 135 22" fill="none"><path d="M124.869 6.99079L127.828 1.90417C127.995 1.61959 127.894 1.25655 127.61 1.09165C127.327 0.925417 126.958 1.02249 126.795 1.30708L123.797 6.45885C121.51 5.42291 118.936 4.84443 116.167 4.84443C113.398 4.84443 110.824 5.42291 108.537 6.45885L105.539 1.30708C105.372 1.02249 105.007 0.925417 104.72 1.09165C104.432 1.25655 104.335 1.61959 104.502 1.90417L107.461 6.99079C102.359 9.73424 98.9029 14.8594 98.332 20.8596H134.002C133.431 14.8594 129.975 9.73424 124.869 6.99079ZM107.978 15.8887C107.151 15.8887 106.483 15.2225 106.483 14.4046C106.483 13.5841 107.154 12.9219 107.978 12.9219C108.805 12.9219 109.472 13.5881 109.472 14.4046C109.477 15.2225 108.805 15.8887 107.978 15.8887ZM124.352 15.8887C123.525 15.8887 122.857 15.2225 122.857 14.4046C122.857 13.5841 123.529 12.9219 124.352 12.9219C125.179 12.9219 125.847 13.5881 125.847 14.4046C125.851 15.2225 125.179 15.8887 124.352 15.8887Z" fill="#3DDC84"></path><path d="M6.41811 7.33875C3.25337 7.33875 -0.00012207 9.85444 -0.00012207 14.2584C-0.00012207 18.2847 2.86067 21.1298 6.41811 21.1298C9.35306 21.1298 10.6625 19.174 10.6625 19.174V20.0258C10.6625 20.4288 11.0467 20.8789 11.5208 20.8789H13.6436V7.63918H10.6625V9.31873C10.6625 9.31873 9.34212 7.33875 6.41811 7.33875ZM6.9482 10.0451C9.55367 10.0451 10.9202 12.3195 10.9202 14.2584C10.9202 16.4182 9.29712 18.4693 6.95427 18.4693C4.99561 18.4693 3.0333 16.8948 3.0333 14.2295C3.0333 11.8236 4.72206 10.0451 6.9482 10.0451Z" fill="black"></path><path d="M17.7892 20.8788C17.3309 20.8788 16.9296 20.553 16.9296 20.0258V7.63913H19.912V9.27766C20.5868 8.27017 21.9071 7.33386 23.933 7.33386C27.2443 7.33386 29.0074 9.95333 29.0074 12.4039V20.8788H26.9357C26.3924 20.8788 26.026 20.4276 26.026 19.9763V13.0554C26.026 11.698 25.1879 10.0486 23.2491 10.0486C21.157 10.0486 19.912 12.0105 19.912 13.8578V20.8788H17.7892Z" fill="black"></path><path d="M37.6948 7.33882C34.5308 7.33882 31.2773 9.85452 31.2773 14.2585C31.2773 18.2848 34.1378 21.1299 37.6948 21.1299C40.6309 21.1299 41.9395 19.1741 41.9395 19.1741V20.0259C41.9395 20.4289 42.3235 20.8789 42.7986 20.8789H44.9209V1.02002H41.9395V9.31881C41.9395 9.31881 40.62 7.33882 37.6948 7.33882ZM38.226 10.0452C40.8306 10.0452 42.1969 12.3195 42.1969 14.2585C42.1969 16.4183 40.5747 18.4694 38.2314 18.4694C36.2727 18.4694 34.3105 16.8949 34.3105 14.2295C34.3105 11.8236 35.999 10.0452 38.226 10.0452Z" fill="black"></path><path d="M49.0661 20.879C48.6079 20.879 48.207 20.5533 48.207 20.026V7.63935H51.1884V9.84616C51.7016 8.60943 52.8089 7.48853 54.7761 7.48853C55.3245 7.48853 55.8374 7.58989 55.8374 7.58989V10.6485C55.8374 10.6485 55.197 10.3976 54.4224 10.3976C52.3305 10.3976 51.1884 12.3594 51.1884 14.2067V20.879H49.0661Z" fill="black"></path><path d="M73.9292 20.879C73.4712 20.879 73.0703 20.5532 73.0703 20.0259V7.63928H76.0517V20.879H73.9292Z" fill="black"></path><path d="M84.7925 7.33882C81.6284 7.33882 78.3749 9.85452 78.3749 14.2585C78.3749 18.2848 81.2355 21.1299 84.7925 21.1299C87.7286 21.1299 89.0372 19.1741 89.0372 19.1741V20.0259C89.0372 20.4289 89.421 20.8789 89.8963 20.8789H92.0186V1.02002H89.0372V9.31881C89.0372 9.31881 87.7177 7.33882 84.7925 7.33882ZM85.3235 10.0452C87.9283 10.0452 89.2946 12.3195 89.2946 14.2585C89.2946 16.4183 87.6723 18.4694 85.3291 18.4694C83.3703 18.4694 81.4081 16.8949 81.4081 14.2295C81.4081 11.8236 83.0966 10.0452 85.3235 10.0452Z" fill="black"></path><path d="M74.5383 4.78423C75.6274 4.78423 76.5103 3.90808 76.5103 2.8273C76.5103 1.74651 75.6274 0.870361 74.5383 0.870361C73.4493 0.870361 72.5664 1.74651 72.5664 2.8273C72.5664 3.90808 73.4493 4.78423 74.5383 4.78423Z" fill="black"></path><path d="M63.7002 7.33386C60.3867 7.33386 56.7461 9.78924 56.7461 14.2354C56.7461 18.2871 59.847 21.1298 63.6931 21.1298C68.433 21.1298 70.7474 17.3484 70.7474 14.2608C70.7474 10.4722 67.7672 7.33386 63.7002 7.33386ZM63.7112 10.0969C66.0026 10.0969 67.7119 11.9297 67.7119 14.2439C67.7119 16.5979 65.8974 18.4138 63.718 18.4138C61.6948 18.4138 59.7281 16.7801 59.7281 14.2837C59.7281 11.7451 61.5986 10.0969 63.7112 10.0969Z" fill="black"></path></svg>