<svg xmlns="http://www.w3.org/2000/svg" width="118" height="32" viewBox="0 0 118 32" fill="none"><path fill-rule="evenodd" clip-rule="evenodd" d="M34.707 23.6561V9.15864H36.5738L45.4469 20.8256V9.15864H47.2215V23.6561H45.3547L36.4816 11.874V23.6561H34.707ZM61.6719 23.0808C60.4965 23.518 59.2289 23.7481 57.8922 23.7481C52.6375 23.7481 50.0102 21.2398 50.0102 16.2002C50.0102 11.4368 52.5453 9.04358 57.6156 9.04358C59.0676 9.04358 60.4273 9.25068 61.6719 9.64188V11.2527C60.4273 10.7695 59.1367 10.5393 57.823 10.5393C53.859 10.5393 51.877 12.4263 51.877 16.1542C51.877 20.1813 53.8359 22.1833 57.7309 22.1833C58.3531 22.1833 59.0445 22.0913 59.8051 21.9302V17.0747H61.6719V23.0808ZM64.668 18.0642V9.15864H66.5348V18.0642C66.5348 20.8486 67.9176 22.2523 70.7062 22.2523C73.4719 22.2523 74.8777 20.8486 74.8777 18.0642V9.15864H76.7445V18.0642C76.7445 21.8611 74.7394 23.7711 70.7062 23.7711C66.673 23.7711 64.668 21.8611 64.668 18.0642ZM81.9531 9.15864V22.1373H89.5586V23.6561H80.0863V9.15864H81.9531ZM92.2551 23.6561H90.2961L97.5098 7.24866L104.723 23.6561H102.649L100.782 19.0997H95.9887L96.4957 17.5809H100.16L97.4406 11.0226L92.2551 23.6561ZM106.729 23.6561V9.15864H112.928C115.694 9.15864 117.077 10.3092 117.077 12.6334C117.077 14.5204 115.717 15.9241 113.02 16.8216L117.998 23.6561H115.532L110.923 17.1437V15.9241C113.689 15.4869 115.095 14.4283 115.095 12.7255C115.095 11.3908 114.334 10.7234 112.79 10.7234H108.641V23.6561H106.729Z" fill="#DD0031"></path><path fill-rule="evenodd" clip-rule="evenodd" d="M0 5.29417L14.8652 0.00146484L30.1223 5.20213L27.6562 24.8312L14.8652 31.8958L2.28164 24.9232L0 5.29417Z" fill="#DD0031"></path><path fill-rule="evenodd" clip-rule="evenodd" d="M30.1242 5.20066L14.8672 0V31.8943L27.6582 24.8297L30.1242 5.20066Z" fill="#C3002F"></path><path fill-rule="evenodd" clip-rule="evenodd" d="M14.8898 3.72791L5.625 24.3004L9.08203 24.2314L10.9488 19.583H19.2227L21.2508 24.2774L24.5465 24.3464L14.8898 3.72791ZM14.9129 10.3323L18.0473 16.8676H12.1703L14.9129 10.3323Z" fill="white"></path></svg>