<svg width="141" height="35" viewBox="0 0 141 35" fill="none" xmlns="http://www.w3.org/2000/svg">
<g clip-path="url(#clip0_2_588)">
<path d="M46.1188 25.8358C44.086 25.8358 43.4949 24.6616 43.4949 22.9023C43.4949 22.316 43.5691 21.6545 43.6605 20.9577C44.1059 17.9153 45.193 16.1745 47.8168 16.1745C49.5914 16.1745 50.4566 16.962 50.4566 18.3919V19.0891H52.2172C52.2367 19.0891 52.2367 18.4473 52.2367 18.3012C52.2367 16.2117 50.9613 14.2299 47.8195 14.2299C43.5504 14.2299 41.7949 16.5307 41.148 21.041C41.0555 21.6463 41 22.2113 41 22.8143C41 25.4727 42.0543 27.8909 45.8238 27.8909C48.6879 27.8909 50.3891 26.5055 51.3863 24.8004L49.7043 23.6766C48.6145 25.382 47.4309 25.8358 46.1188 25.8358ZM57.6695 17.439C54.25 17.439 52.7726 19.1798 52.2738 22.6442C52.2153 23.0452 52.184 23.4497 52.1801 23.8548C52.1801 26.0908 53.2336 27.8703 56.1527 27.8703C59.5723 27.8703 61.0695 26.0548 61.5684 22.6442C61.6238 22.2048 61.6609 21.8013 61.6609 21.3983C61.6617 19.1255 60.5719 17.439 57.6695 17.439ZM59.0926 22.6454C58.7227 25.1577 57.9289 25.9277 56.4309 25.9277C55.2305 25.9277 54.6395 25.4324 54.6395 23.9474C54.6395 23.5805 54.677 23.141 54.7504 22.6454C55.1203 20.1524 55.8594 19.3824 57.3746 19.3824C58.5945 19.3824 59.2035 19.8773 59.2035 21.3805C59.2035 21.7471 59.166 22.1691 59.0926 22.6454ZM70.2566 14.4121L69.6844 17.7777C69.6476 18.0703 69.6664 17.973 69.7781 18.2482C69.2422 17.8451 68.2805 17.5785 67.6336 17.5785C64.5656 17.5785 62.8477 18.9562 62.2938 22.8062C62.2291 23.2126 62.1981 23.6236 62.2012 24.035C62.2012 26.8411 63.8641 27.887 66.0996 27.887C67.0434 27.887 67.9668 27.9064 68.6867 27.3022L68.8707 28.4427H70.6453L72.7148 14.4121H70.2566ZM68.5012 25.3952C67.6703 25.8889 66.8578 26.0005 66.359 26.0005C65.0098 26.0005 64.6402 25.3034 64.6402 24.1858C64.6402 23.7638 64.6957 23.27 64.7703 22.7368C65.1945 19.8223 66.1375 19.308 67.3574 19.308C68.1512 19.308 68.7605 19.4371 69.3348 19.7494L68.5012 25.3952ZM78.1117 17.439C74.7289 17.439 73.141 19.0329 72.6043 22.6442C72.548 23.0848 72.5109 23.5068 72.5109 23.9098C72.5109 26.3849 73.7867 27.8703 76.5945 27.8703C78.7754 27.8703 80.4031 26.9713 81.2711 25.3212L79.4043 24.5694C78.8691 25.3755 78.1484 25.9257 76.873 25.9257C75.5058 25.9257 74.9512 25.5607 74.9512 24.3505C74.9512 24.1117 74.9699 23.7649 75.007 23.7649H81.6773C81.7711 22.8294 81.8805 22.1683 81.8805 21.62C81.8805 19.7878 81.1789 17.439 78.1117 17.439ZM79.3863 21.8951H75.3207C75.7281 20.9596 76.4105 19.5119 77.8156 19.5119C78.9055 19.5119 79.4422 20.1439 79.4422 21.2255C79.441 21.4088 79.4242 21.8951 79.3863 21.8951ZM88.9922 17.2181L89.2137 15.3475H84.0016L83.7809 17.2181H85.1481L83.6707 26.5717H82.3016L82.0813 28.4427H87.2922L87.5148 26.5717H86.1465L87.6242 17.2181H88.9922ZM99.582 20.0242L100.248 18.1536H98.4555L97.1629 18.4183C96.4418 17.961 95.4621 17.6177 94.5391 17.6177C91.8953 17.6177 89.6418 18.8841 89.6418 21.763C89.6418 22.5706 89.9371 23.2224 90.2875 23.663C89.7344 23.9556 89.2535 24.4458 89.2535 25.1069C89.2535 25.3999 89.3637 25.6998 89.5863 25.9742C88.4766 26.6353 87.7949 27.7308 87.7949 29.0131C87.7949 31.4894 90.4 32.0176 92.3957 32.0176C94.9086 32.0176 97.9031 31.4479 97.9031 28.2761C97.9031 27.1949 97.2195 26.3501 95.2422 25.9835L91.6758 25.3224C91.2695 25.2483 91.177 25.1201 91.177 24.9368C91.177 24.6616 91.3449 24.5159 91.6207 24.5159L91.8613 24.5524C92.3418 24.662 92.8965 24.7178 93.4688 24.7178C96.0383 24.7178 98.3293 23.6173 98.3293 20.7574C98.3293 20.3536 98.2559 20.0804 98.0711 19.6397C98.3848 19.787 98.7922 20.0253 98.957 20.0253L99.582 20.0242ZM94.5012 27.613C95.2027 27.7421 95.4426 27.9982 95.4426 28.4566C95.4426 29.942 93.8348 30.1253 92.6711 30.1253C90.8969 30.1253 90.232 29.7045 90.232 28.7682C90.232 27.9428 90.4715 27.5587 91.027 26.9713L94.5012 27.613ZM93.7422 22.8108C92.6703 22.8108 92.0789 22.4264 92.0789 21.5088C92.0789 20.1524 92.8738 19.3638 94.2598 19.3638C95.3688 19.3638 95.9051 19.8223 95.9051 20.7194C95.9051 22.0765 95.1281 22.8108 93.7422 22.8108ZM106.147 17.439C105.112 17.439 104.189 17.9428 103.043 18.8403L102.877 18.1536H100.843L99.4203 28.4423H101.878L102.95 20.6399C103.671 20.2001 104.558 19.5615 105.316 19.5615C106.239 19.5615 106.573 20.0036 106.573 20.8465C106.573 21.0484 106.553 21.6463 106.516 21.8661L105.612 28.4423H108.07L108.974 21.8126C109.012 21.5026 109.048 20.9914 109.048 20.6988C109.05 18.955 108.217 17.439 106.147 17.439ZM113.718 25.8649L113.736 25.613L114.807 18.1536H110.723L110.466 20.0242H112.257C112.109 20.0242 112.017 20.1881 111.999 20.3357L111.259 25.3038C111.223 25.5429 111.205 26.0404 111.205 26.2408C111.205 27.5239 111.906 28.4427 113.347 28.4427H114.604L114.881 26.5717H114.087C113.809 26.5717 113.718 26.0846 113.718 25.8649ZM115.306 14.4121H112.904C112.756 14.4121 112.756 13.8723 112.738 14.0556L112.404 16.6915C112.385 16.8573 112.385 17.2185 112.533 17.2185H114.937C115.085 17.2185 115.085 16.5775 115.103 16.4109L115.436 14.3764C115.455 14.1931 115.455 14.4121 115.306 14.4121ZM120.318 25.9273C119.709 25.9273 119.413 25.6704 119.413 25.1212L119.432 25.0836L120.208 20.0242H123.017L123.866 18.1536H120.466L121.039 14.0369L118.453 14.8573L117.99 18.1536H116.493L116.235 20.0242H117.972C117.806 20.9596 117.639 20.3528 117.621 20.5369L116.955 24.9732C116.919 25.1755 116.919 25.322 116.919 25.5045C116.919 27.2464 118.212 27.8982 119.766 27.8982C121.207 27.8982 122.371 27.4809 123.277 26.7279L122.131 25.329C121.557 25.6766 121.169 25.9273 120.318 25.9273ZM129.337 17.439C125.955 17.439 124.366 19.0329 123.83 22.6442C123.774 23.0848 123.737 23.5068 123.737 23.9098C123.737 26.3849 125.012 27.8703 127.821 27.8703C130.002 27.8703 131.629 26.9713 132.496 25.3212L130.63 24.5694C130.095 25.3755 129.374 25.9257 128.098 25.9257C126.732 25.9257 126.176 25.5607 126.176 24.3505C126.176 24.1117 126.196 23.7649 126.233 23.7649H132.904C132.996 22.8294 133.107 22.1683 133.107 21.62C133.107 19.7878 132.405 17.439 129.337 17.439ZM130.613 21.8951H126.547C126.953 20.9596 127.636 19.5119 129.042 19.5119C130.132 19.5119 130.668 20.1439 130.668 21.2255C130.667 21.4088 130.649 21.8951 130.613 21.8951ZM139.908 17.4386C139.021 17.4386 138.189 17.9432 137.357 18.7298L137.21 18.1536H135.178L133.754 28.4423H136.231L137.321 20.4748C137.968 20.0908 138.707 19.7626 139.409 19.7626C139.854 19.7626 140.278 19.6924 140.684 19.7471L141 17.6215C140.629 17.5483 140.259 17.4386 139.908 17.4386Z" fill="#EE4323"/>
<path d="M12.2903 32.2215C10.3884 31.3867 8.60872 29.2653 8.60447 27.0946C8.59929 24.7279 10.0764 22.7186 11.9136 21.3982C11.6928 22.2454 11.5723 23.0204 12.1195 23.7783C12.6282 24.4829 13.5191 24.8253 14.3603 24.6395C16.3259 24.2025 16.4161 22.0085 15.2508 20.7302C14.0987 19.4644 12.9841 18.0346 13.4226 16.1988C13.6422 15.2786 14.1987 14.4166 14.9036 13.8005C14.3618 15.2464 15.9016 16.6723 16.9161 17.3825C18.676 18.6148 20.607 19.5461 22.2252 20.9906C23.9273 22.5088 25.1842 24.5615 24.9304 26.9423C24.6554 29.5228 22.6358 31.3176 20.3706 32.2236C25.1574 31.1509 30.1035 27.3787 30.2048 21.9884C30.2888 17.5538 27.2926 14.141 23.5812 12.1871L23.3873 12.0796C23.4892 12.3306 23.5225 12.5441 23.5186 12.7352C23.5518 12.5942 23.5744 12.4494 23.5808 12.3C23.5799 12.4775 23.5571 12.6542 23.5128 12.8259L23.5186 12.7352C23.4635 12.9706 23.3707 13.1952 23.2439 13.4001L23.2983 13.3406C22.5579 14.5876 20.5533 14.8584 19.5631 13.5672C17.9712 11.4902 19.5964 9.25086 19.8238 7.05144C20.1084 4.29493 18.4059 1.61894 16.295 0.0175781C17.4576 1.92721 15.9259 4.45366 14.7004 5.86609C13.5122 7.23524 12.067 8.37837 10.7552 9.62238C9.34609 10.9585 7.9914 12.3659 6.83314 13.9341C4.51663 17.0729 3.09846 21.0206 4.14064 24.9364C5.18215 28.8495 8.5204 31.3406 12.2903 32.2215Z" fill="#EE4323"/>
</g>
<defs>
<clipPath id="clip0_2_588">
<rect width="141" height="34" fill="white" transform="translate(0 0.0175781)"/>
</clipPath>
</defs>
</svg>
