<svg xmlns="http://www.w3.org/2000/svg" width="139" height="41" viewBox="0 0 139 41" fill="none"><g clip-path="url(#clip0_2_507)"><path fill-rule="evenodd" clip-rule="evenodd" d="M52.9598 9.42446V27.872H59.5639V31.054H49.4437V9.42446H52.9598ZM71.9759 18.6012V16.6557H75.308V31.054H71.9752V29.1069C71.5274 29.828 70.89 30.3948 70.0639 30.8064C69.2394 31.218 68.4085 31.4238 67.573 31.4238C66.4925 31.4238 65.5038 31.2228 64.6074 30.8216C63.7347 30.4376 62.9489 29.875 62.2989 29.1688C61.6562 28.4676 61.1483 27.6502 60.8014 26.7586C60.4411 25.8345 60.2593 24.8483 60.266 23.854C60.266 22.8451 60.4445 21.882 60.8014 20.9648C61.146 20.0677 61.6541 19.2451 62.2989 18.5401C62.949 17.8338 63.7347 17.2709 64.6074 16.8865C65.5038 16.4845 66.4925 16.2835 67.573 16.2835C68.4085 16.2835 69.2394 16.4901 70.0647 16.9025C70.89 17.3141 71.5274 17.8809 71.9759 18.6012ZM71.6695 25.6154C71.8746 25.0521 71.9784 24.4557 71.9759 23.8549C71.9759 23.2358 71.8733 22.649 71.6695 22.0927C71.4781 21.5576 71.1877 21.0647 70.8142 20.6408C70.4403 20.2239 69.9881 19.8876 69.4842 19.652C68.9637 19.4051 68.388 19.2813 67.7562 19.2813C67.1244 19.2813 66.5534 19.4051 66.044 19.652C65.5346 19.8996 65.0962 20.2292 64.7298 20.6408C64.3571 21.0627 64.0714 21.5564 63.8895 22.0927C63.6938 22.6584 63.5955 23.2543 63.5988 23.854C63.5988 24.4723 63.6952 25.0599 63.8895 25.6146C64.0711 26.1513 64.3569 26.6453 64.7298 27.0673C65.0996 27.4818 65.5462 27.8178 66.044 28.0561C66.5534 28.3038 67.1244 28.4268 67.7562 28.4268C68.388 28.4268 68.9645 28.3038 69.4842 28.057C69.9882 27.8215 70.4405 27.4852 70.8142 27.0681C71.1879 26.644 71.4783 26.1509 71.6695 25.6154ZM77.9371 31.0532V16.6549H86.9872V19.9687H81.2692V31.0532H77.9371ZM99.0636 18.6012V16.6557H102.396V31.054H99.0628V29.1069C98.6142 29.828 97.9776 30.3948 97.1515 30.8064C96.327 31.218 95.4962 31.4238 94.6606 31.4238C93.5794 31.4238 92.5914 31.2228 91.695 30.8216C90.8223 30.4376 90.0366 29.875 89.3865 29.1688C88.7439 28.4676 88.2359 27.6502 87.8891 26.7586C87.5287 25.8345 87.3469 24.8483 87.3536 23.854C87.3536 22.8451 87.5313 21.882 87.8891 20.9648C88.2337 20.0677 88.7417 19.2451 89.3865 18.5401C90.0366 17.8338 90.8223 17.2709 91.695 16.8865C92.5914 16.4845 93.5794 16.2835 94.6606 16.2835C95.4962 16.2835 96.327 16.4901 97.1523 16.9025C97.9776 17.3141 98.6142 17.8809 99.0636 18.6012ZM98.7571 25.6154C98.962 25.052 99.0655 24.4556 99.0628 23.8549C99.0628 23.2358 98.9601 22.649 98.7571 22.0927C98.5655 21.5575 98.2748 21.0646 97.901 20.6408C97.5272 20.2239 97.0749 19.8876 96.571 19.652C96.0514 19.4051 95.4756 19.2813 94.8438 19.2813C94.212 19.2813 93.641 19.4051 93.1316 19.652C92.6222 19.8996 92.1839 20.2292 91.8174 20.6408C91.4444 21.0626 91.1584 21.5563 90.9763 22.0927C90.7807 22.6584 90.6823 23.2543 90.6857 23.854C90.6857 24.4723 90.782 25.0599 90.9763 25.6146C91.1582 26.1513 91.4442 26.6454 91.8174 27.0673C92.1872 27.4818 92.6338 27.8178 93.1316 28.0561C93.641 28.3038 94.212 28.4268 94.8438 28.4268C95.4756 28.4268 96.0522 28.3038 96.571 28.057C97.075 27.8215 97.5273 27.4852 97.901 27.0681C98.275 26.6441 98.5656 26.1509 98.7571 25.6154ZM115.755 16.6549H119.131L113.661 31.0532H109.474L104.004 16.6549H107.379L111.567 27.6807L115.755 16.6549ZM126.398 16.2851C130.936 16.2851 134.031 20.349 133.449 25.1058H122.394C122.394 26.3478 123.635 28.7491 126.582 28.7491C129.117 28.7491 130.815 26.4957 130.816 26.4941L133.067 28.2547C131.055 30.4269 129.407 31.4246 126.826 31.4246C122.213 31.4246 119.088 28.4758 119.088 23.8549C119.088 19.6745 122.318 16.2851 126.398 16.2851ZM122.403 22.6031H130.389C130.365 22.3258 129.932 18.9598 126.372 18.9598C122.813 18.9598 122.429 22.3258 122.403 22.6031ZM135.62 31.0532V9.42446H138.953V31.0532H135.62ZM39.3022 9.25564C39.3168 9.31015 39.3242 9.36637 39.3244 9.42285V18.2049C39.3242 18.3178 39.2947 18.4287 39.2388 18.5263C39.1829 18.6239 39.1026 18.7046 39.0061 18.7604L31.7133 23.0043V31.4157C31.713 31.5285 31.6834 31.6393 31.6275 31.7367C31.5716 31.8341 31.4914 31.9147 31.395 31.9704L16.173 40.8288C16.1382 40.8498 16.0995 40.8618 16.0624 40.8755C16.0474 40.8803 16.034 40.8891 16.0198 40.8932C15.9131 40.9216 15.801 40.9216 15.6944 40.8932C15.677 40.8883 15.6612 40.8787 15.6446 40.8723C15.6091 40.8602 15.5735 40.8481 15.5404 40.8288L0.317489 31.972C0.221025 31.9161 0.140833 31.8352 0.0850677 31.7375C0.029302 31.6397 -4.87193e-05 31.5287 6.0704e-08 31.4157V5.06962C0.00012543 5.01313 0.00756061 4.95691 0.0221137 4.9024C0.0268523 4.88311 0.0379092 4.86623 0.0442273 4.84854C0.0568637 4.81478 0.0679205 4.78021 0.0852955 4.74885C0.0971421 4.72795 0.114517 4.71107 0.127943 4.69258C0.146898 4.66685 0.162693 4.63952 0.184807 4.61701C0.202972 4.59852 0.226665 4.58485 0.247199 4.56878C0.270102 4.55109 0.290636 4.53019 0.316699 4.51491L0.317489 4.51411L7.92932 0.0853056C8.02562 0.029634 8.13448 0.000366211 8.24523 0.000366211C8.35598 0.000366211 8.46483 0.029634 8.56114 0.0853056L16.173 4.51411H16.1745C16.1998 4.53019 16.2204 4.55109 16.244 4.56878C16.2646 4.58485 16.2875 4.59852 16.3056 4.61701C16.3278 4.63952 16.3436 4.66685 16.3625 4.69178C16.3767 4.71107 16.3941 4.72795 16.406 4.74885C16.4233 4.78021 16.4344 4.81478 16.447 4.84854C16.4533 4.86623 16.4636 4.88311 16.4691 4.9024C16.4834 4.95695 16.4906 5.01317 16.4905 5.06962V21.5251L22.8339 17.8343V9.42285C22.8338 9.3664 22.8409 9.31018 22.8552 9.25564C22.8608 9.23634 22.871 9.22027 22.8781 9.20178C22.89 9.16801 22.901 9.13344 22.9184 9.10209C22.9303 9.08119 22.9476 9.06431 22.9619 9.04582C22.9808 9.02009 22.9966 8.99276 23.0187 8.97105C23.0369 8.95256 23.0598 8.93889 23.0803 8.92282C23.104 8.90433 23.1245 8.88262 23.1506 8.86815L30.7624 4.43854C30.8588 4.38257 30.9678 4.35313 31.0787 4.35313C31.1897 4.35313 31.2987 4.38257 31.395 4.43854L39.0061 8.86734C39.0329 8.88342 39.0543 8.90433 39.078 8.92201C39.0977 8.93809 39.1214 8.95256 39.1396 8.97025C39.1617 8.99276 39.1775 9.02009 39.1956 9.04501C39.2099 9.06431 39.2272 9.08119 39.2391 9.10209C39.2572 9.13344 39.2675 9.16801 39.2801 9.20178C39.2872 9.22027 39.2975 9.23634 39.3022 9.25564ZM38.056 17.8343V10.5315L35.3921 12.0814L31.7133 14.2223V21.5251L38.056 17.8343ZM30.445 31.0451V23.7375L26.8246 25.8261L16.4905 31.7871V39.1631L30.445 31.0435V31.0451ZM1.26838 6.17823V31.0451L15.2221 39.1647V31.7896L7.93248 27.6204L7.9309 27.618L7.92774 27.6172C7.90247 27.6027 7.88272 27.5818 7.85982 27.5641C7.83928 27.5481 7.81717 27.5352 7.79901 27.5175L7.79743 27.5151C7.77689 27.495 7.76268 27.4701 7.7453 27.4476C7.72951 27.4267 7.71055 27.4082 7.69791 27.3857L7.69713 27.3833C7.68291 27.3591 7.67422 27.3302 7.66396 27.3029C7.65369 27.2796 7.64026 27.2571 7.63394 27.2313C7.62526 27.2008 7.62447 27.1678 7.62052 27.1365C7.61815 27.1123 7.61104 27.089 7.61104 27.0641V9.86823L3.93307 7.72819L1.26838 6.17823ZM8.24523 1.38042L1.90572 5.07042L8.24523 8.75882L14.5855 5.06962L8.24523 1.38042ZM11.5433 24.4031L15.2221 22.2631V6.17823L12.559 7.72819L8.87942 9.86903V25.9531L11.5433 24.4031ZM31.0791 5.73446L24.7388 9.42285L31.0791 13.1121L37.4186 9.42285L31.0791 5.73446ZM30.445 14.2223L26.7654 12.0814L24.1023 10.5315V17.8343L27.781 19.9751L30.445 21.5251V14.2223ZM15.8555 30.6785L25.1551 25.3132L29.8037 22.6313L23.4681 18.9445L16.173 23.1892L9.52466 27.0577L15.8555 30.6785Z" fill="#808080"></path></g><defs><clipPath id="clip0_2_507"><rect width="139" height="41" fill="white"></rect></clipPath></defs></svg>