<svg width="113" height="44" viewBox="0 0 113 44" fill="none" xmlns="http://www.w3.org/2000/svg">
<g clip-path="url(#clip0_2_283)">
<path fill-rule="evenodd" clip-rule="evenodd" d="M52.7148 37.3776H64.0558C65.3844 37.3776 66.6498 37.1087 67.6779 36.6263C69.3941 35.8354 70.2087 34.7836 70.2087 33.3996V30.505C70.2087 29.3978 69.2754 28.3302 67.409 27.6105C66.3351 27.2293 65.2033 27.0366 64.0637 27.0411H59.3027C57.7052 27.0411 56.9538 26.5666 56.7403 25.5068C56.7087 25.3882 56.7087 25.2696 56.7087 25.143V23.3636C56.7087 23.2687 56.7087 23.1501 56.7403 23.0314C56.9538 22.2168 57.373 22.0033 58.7649 21.8451H70.3747V19.2195H59.3264C57.7289 19.2195 56.8748 19.3144 56.1314 19.5516C53.8062 20.2634 52.786 21.4181 52.786 23.4427V25.7362C52.786 27.5156 54.779 29.0261 58.1639 29.3741C58.5277 29.4058 58.9152 29.4058 59.3106 29.4058H63.3835C63.5417 29.4058 63.6841 29.4058 63.8027 29.4374C65.0364 29.556 65.5821 29.7696 65.938 30.2282C66.1753 30.4655 66.2385 30.679 66.2385 30.9558V33.2493C66.2385 33.5182 66.0566 33.882 65.6849 34.1825C65.3132 34.4831 64.7517 34.6966 63.9925 34.7361C63.8343 34.7361 63.7552 34.7678 63.5971 34.7678H52.7148V37.3776ZM94.749 32.8223C94.749 35.5112 96.7736 37.0138 100.815 37.3144L101.962 37.3776H112.211V34.7678H101.875C99.5021 34.7678 98.7112 34.1984 98.7112 32.8065V19.2274H94.7569V32.8302L94.749 32.8223ZM72.7078 32.9409V23.6008C72.7078 21.2283 74.3923 19.7731 77.6902 19.3302L78.742 19.2669H86.2236C86.619 19.2669 86.9511 19.2986 87.3308 19.3302C90.6207 19.781 92.2736 21.2283 92.2736 23.6008V32.9488C92.2736 34.8785 91.5777 35.9066 89.9485 36.5868L93.8079 40.0824H89.2525L86.1128 37.2511L82.9494 37.433H78.7262C78.0303 37.433 77.2473 37.3539 76.3536 37.1325C73.8545 36.4365 72.6129 35.1079 72.6129 32.9409H72.7078ZM76.9626 32.7353C76.9626 32.8539 77.0259 32.9725 77.0575 33.1307C77.271 34.2142 78.2912 34.8152 79.8571 34.8152H83.416L80.1577 31.8574H84.713L87.5759 34.4514C88.1295 34.1509 88.4459 33.7238 88.5724 33.1861C88.604 33.0674 88.604 32.9172 88.604 32.7906V23.8539C88.604 23.7353 88.604 23.6167 88.5724 23.4901C88.3589 22.462 87.3387 21.8926 85.8044 21.8926H79.873C78.1331 21.8926 76.9784 22.6439 76.9784 23.8539L76.9626 32.7353Z" fill="#E78D01"/>
<path fill-rule="evenodd" clip-rule="evenodd" d="M104.416 16.2562C103.271 16.23 102.376 16.3436 101.627 16.6668C101.412 16.7542 101.067 16.7542 101.042 17.0338C101.153 17.1473 101.171 17.3396 101.274 17.4968C101.471 17.8355 101.724 18.137 102.023 18.3879L102.944 19.0606C103.504 19.4101 104.132 19.611 104.683 19.9605C105.001 20.1614 105.311 20.4235 105.544 20.6419C105.699 20.7555 105.802 20.9477 106 21.0176V20.9739C105.897 20.8429 105.871 20.6506 105.768 20.5109L105.337 20.0915C104.918 19.5278 104.415 19.0328 103.848 18.6238C103.392 18.3006 102.384 17.8637 102.195 17.3308L102.169 17.3046C102.488 17.2784 102.858 17.1561 103.159 17.0687C103.65 16.9377 104.089 16.9639 104.597 16.8328L105.286 16.6319V16.5009C105.027 16.2388 104.838 15.8893 104.571 15.6447C103.839 15.0069 103.039 14.3779 102.204 13.8537C101.756 13.5654 101.188 13.3732 100.714 13.1286C100.542 13.0412 100.258 12.9976 100.155 12.849C99.8967 12.5258 99.7503 12.1064 99.5696 11.7308L98.3902 9.19721C98.132 8.62935 97.977 8.06148 97.6585 7.5373C96.329 5.24277 94.4098 3.35835 92.1061 2.08577C91.5724 1.78 90.944 1.64895 90.2725 1.4917L89.1965 1.43054C88.9641 1.32571 88.7403 1.05488 88.5337 0.923832C87.7159 0.399647 85.6068 -0.736087 85.0903 0.766576C84.7029 1.71011 85.6671 2.6449 85.9942 3.12541C86.2352 3.45739 86.5537 3.84179 86.7259 4.21746C86.8292 4.46208 86.855 4.72417 86.9583 4.98626L87.7073 6.93448C87.8627 7.24759 88.0411 7.54839 88.241 7.83433C88.3529 7.99159 88.5595 8.07022 88.6025 8.33231C88.4045 8.62061 88.3873 9.05743 88.2754 9.42436C87.7589 11.0668 87.9569 13.1111 88.6886 14.3168C88.921 14.6837 89.5494 15.4787 90.1951 15.1729C90.8407 14.9108 90.6944 14.0809 90.8837 13.3557C90.9268 13.181 90.901 13.0674 90.987 12.9451V12.9713L91.5724 14.177C92.02 14.8934 92.7948 15.636 93.4404 16.1252C93.7847 16.3873 94.0602 16.8416 94.4906 16.9988V16.9551H94.4304C94.3443 16.8241 94.2152 16.7629 94.1033 16.6668C93.8305 16.3969 93.58 16.1047 93.3543 15.7932C92.7465 14.9575 92.2081 14.0721 91.7446 13.1461C91.5121 12.6918 91.3142 12.2025 91.1248 11.7482C91.0387 11.5735 91.0387 11.3114 90.8923 11.2241C90.6771 11.5473 90.3586 11.8181 90.2037 12.2113C89.9282 12.8403 89.9024 13.6091 89.7991 14.4129C89.2826 14.3255 89.1276 13.845 88.9555 13.4344C88.525 12.4035 88.4562 10.7261 88.8263 9.54667C88.9296 9.2409 89.3601 8.27989 89.1879 7.99159C89.1018 7.71202 88.8177 7.55477 88.6542 7.33636C88.4648 7.05679 88.2668 6.70734 88.1377 6.40156C87.888 5.58034 87.6298 4.67175 87.2596 3.85927C87.0875 3.4836 86.7862 3.0992 86.5365 2.74974C86.2697 2.34787 85.9684 2.0683 85.7532 1.61401C85.6757 1.43928 85.581 1.17719 85.6929 1.00246C85.7187 0.888885 85.779 0.845204 85.8909 0.810258C86.0803 0.653003 86.6054 0.85394 86.7948 0.941304C87.3285 1.15971 87.7675 1.36065 88.2151 1.66643C88.4131 1.81494 88.6283 2.08577 88.8866 2.1644H89.1879C89.6441 2.26924 90.1606 2.19061 90.5911 2.32166C91.3486 2.56628 92.0373 2.93321 92.6571 3.32634C94.5568 4.5554 96.1014 6.27371 97.1334 8.3061C97.3056 8.63808 97.3744 8.94386 97.538 9.29331L98.5107 11.4337C98.812 12.1152 99.0961 12.8141 99.5265 13.382C99.7417 13.6877 100.603 13.845 100.99 14.011C101.274 14.142 101.722 14.2556 101.98 14.4216L103.417 15.4088C103.65 15.5835 104.278 15.9505 104.407 16.2388L104.416 16.2562Z" fill="#076088"/>
<path fill-rule="evenodd" clip-rule="evenodd" d="M0.367188 37.3932H4.28985V21.8607L10.4111 35.4002C11.1071 37.0294 12.1035 37.6304 14.0332 37.6304C15.9629 37.6304 16.8962 37.0294 17.6237 35.4002L23.7134 21.8607V37.3932H27.6677V21.8607C27.6677 20.3581 27.0666 19.6305 25.8012 19.2351C22.8197 18.3335 20.8188 19.1164 19.9172 21.1331L13.9067 34.5224L8.11761 21.1331C7.24767 19.1164 5.22307 18.3335 2.20989 19.2351C0.97615 19.6305 0.367188 20.3423 0.367188 21.8607V37.3932ZM30.9181 24.7553H34.8724V33.2965C34.8408 33.7711 35.0306 34.8624 37.245 34.8941H45.723V24.692H49.6773V38.6507C49.6773 42.0909 45.4225 42.8422 43.4295 42.8738H31.013V40.2482H43.469C45.9998 39.9793 45.6993 38.7139 45.6993 38.2869V37.2587H37.3399C33.4488 37.2271 30.9497 35.5189 30.9181 33.5417V24.7553Z" fill="#00618B"/>
<path fill-rule="evenodd" clip-rule="evenodd" d="M90.7722 3.4856C90.5507 3.4856 90.3925 3.50932 90.2344 3.54886V3.57259H90.2581C90.3609 3.78612 90.5507 3.92848 90.6773 4.11037L90.9778 4.74306L91.0015 4.71934C91.1834 4.58489 91.2783 4.37927 91.2783 4.06292C91.1992 3.96802 91.1834 3.88103 91.1201 3.78612C91.0411 3.65168 90.8671 3.58841 90.7643 3.4856H90.7722Z" fill="#00618B"/>
</g>
<defs>
<clipPath id="clip0_2_283">
<rect width="113" height="43" fill="white" transform="translate(0 0.0175781)"/>
</clipPath>
</defs>
</svg>
