<svg width="138" height="19" viewBox="0 0 138 19" fill="none" xmlns="http://www.w3.org/2000/svg">
<g clip-path="url(#clip0_2_318)">
<path d="M61.1471 11.7776H68.6682L64.6954 5.2776L57.3915 17.0176H54.0702L62.9534 2.9326C63.147 2.65154 63.4043 2.42159 63.7037 2.26201C64.0031 2.10244 64.3359 2.01788 64.6743 2.01544C65.0126 2.01299 65.3465 2.09272 65.6482 2.24794C65.9498 2.40317 66.2103 2.62937 66.4079 2.9076L75.3157 17.0176H71.9944L70.43 14.3926H62.8201L61.1619 11.7776H61.1471ZM95.6728 14.3926V2.1576H92.85V15.5976C92.8495 15.7844 92.8864 15.9693 92.9585 16.1412C93.0306 16.3131 93.1364 16.4684 93.2695 16.5976C93.4031 16.7361 93.5628 16.846 93.7391 16.9207C93.9154 16.9954 94.1048 17.0335 94.296 17.0326H107.127L108.8 14.4076H95.658L95.6728 14.3926ZM49.0019 12.2076C50.3173 12.2076 51.5789 11.6782 52.509 10.7358C53.4391 9.79344 53.9617 8.51532 53.9617 7.1826C53.9617 5.84989 53.4391 4.57176 52.509 3.62939C51.5789 2.68702 50.3173 2.1576 49.0019 2.1576H36.6643V17.0176H39.4822V4.7876H48.8292C49.4588 4.7876 50.0625 5.04099 50.5077 5.49201C50.9529 5.94304 51.203 6.55476 51.203 7.1926C51.203 7.83045 50.9529 8.44217 50.5077 8.89319C50.0625 9.34422 49.4588 9.5976 48.8292 9.5976H40.8788L49.298 17.0176H53.3892L47.7336 12.2076H49.0019ZM19.3323 17.0176H27.8552C29.7666 16.9674 31.583 16.1628 32.9174 14.7753C34.2517 13.3879 34.9985 11.5273 34.9985 9.5901C34.9985 7.65292 34.2517 5.79233 32.9174 4.40489C31.583 3.01744 29.7666 2.21285 27.8552 2.1626H19.3323C18.3536 2.13687 17.3797 2.30996 16.468 2.67166C15.5564 3.03336 14.7254 3.57634 14.0242 4.2686C13.323 4.96085 12.7657 5.78835 12.3852 6.7023C12.0046 7.61626 11.8086 8.59816 11.8086 9.5901C11.8086 10.582 12.0046 11.5639 12.3852 12.4779C12.7657 13.3919 13.323 14.2194 14.0242 14.9116C14.7254 15.6039 15.5564 16.1468 16.468 16.5085C17.3797 16.8702 18.3536 17.0433 19.3323 17.0176ZM27.6627 14.4026H19.5199C18.2879 14.3623 17.1196 13.8382 16.2622 12.941C15.4048 12.0438 14.9254 10.8439 14.9254 9.5951C14.9254 8.34626 15.4048 7.14638 16.2622 6.24919C17.1196 5.352 18.2879 4.82786 19.5199 4.7876H27.6627C28.2987 4.76682 28.9324 4.87579 29.526 5.10803C30.1196 5.34028 30.6611 5.69106 31.1182 6.13953C31.5754 6.588 31.9389 7.12501 32.1871 7.71863C32.4354 8.31226 32.5633 8.95039 32.5633 9.5951C32.5633 10.2398 32.4354 10.8779 32.1871 11.4716C31.9389 12.0652 31.5754 12.6022 31.1182 13.0507C30.6611 13.4991 30.1196 13.8499 29.526 14.0822C28.9324 14.3144 28.2987 14.4234 27.6627 14.4026ZM81.2032 17.0176H89.9037L91.5521 14.4026H81.3957C80.7597 14.4234 80.126 14.3144 79.5324 14.0822C78.9388 13.8499 78.3973 13.4991 77.9402 13.0507C77.483 12.6022 77.1195 12.0652 76.8713 11.4716C76.623 10.8779 76.4951 10.2398 76.4951 9.5951C76.4951 8.95039 76.623 8.31226 76.8713 7.71863C77.1195 7.12501 77.483 6.588 77.9402 6.13953C78.3973 5.69106 78.9388 5.34028 79.5324 5.10803C80.126 4.87579 80.7597 4.76682 81.3957 4.7876H89.6619L91.33 2.1626H81.2032C80.2245 2.13687 79.2506 2.30996 78.3389 2.67166C77.4273 3.03336 76.5963 3.57634 75.8951 4.2686C75.1939 4.96085 74.6366 5.78835 74.2561 6.7023C73.8755 7.61626 73.6795 8.59816 73.6795 9.5901C73.6795 10.582 73.8755 11.5639 74.2561 12.4779C74.6366 13.3919 75.1939 14.2194 75.8951 14.9116C76.5963 15.6039 77.4273 16.1468 78.3389 16.5085C79.2506 16.8702 80.2245 17.0433 81.2032 17.0176ZM115.685 14.4026C114.651 14.403 113.645 14.0614 112.82 13.4296C111.995 12.7979 111.396 11.9106 111.115 10.9026H123.166L124.824 8.2826H111.115C111.396 7.27418 111.994 6.38641 112.819 5.75455C113.644 5.1227 114.65 4.78138 115.685 4.7826H123.956L125.609 2.1576H115.492C113.581 2.20785 111.764 3.01244 110.43 4.39989C109.096 5.78733 108.349 7.64792 108.349 9.5851C108.349 11.5223 109.096 13.3829 110.43 14.7703C111.764 16.1578 113.581 16.9624 115.492 17.0126H124.193L125.846 14.3976H115.68" fill="#FF141D"/>
</g>
<defs>
<clipPath id="clip0_2_318">
<rect width="114" height="15" fill="white" transform="translate(12 2.01758)"/>
</clipPath>
</defs>
</svg>
