<svg width="60" height="31" viewBox="0 0 60 31" fill="none" xmlns="http://www.w3.org/2000/svg">
<g clip-path="url(#clip0_2_548)">
<path d="M4.67911 6.20361H13.4483C16.0222 6.22504 17.8873 6.96096 19.0436 8.41014C20.2 9.85933 20.5815 11.8387 20.1889 14.3483C20.0364 15.495 19.6981 16.6197 19.1745 17.723C18.6726 18.8263 17.975 19.8212 17.0804 20.7083C15.9895 21.833 14.8226 22.5469 13.5792 22.8499C12.3358 23.153 11.0486 23.3042 9.71815 23.3042H5.79162L4.54822 29.4695H0L4.67911 6.20361ZM8.50747 9.9028L6.54421 19.6375C6.67509 19.6589 6.80597 19.6699 6.93686 19.6699C7.08935 19.6699 7.24246 19.6699 7.39495 19.6699C9.4891 19.6914 11.2344 19.4863 12.6303 19.0534C14.0262 18.5991 14.9646 17.0201 15.4443 14.3159C15.837 12.0444 15.4443 10.7354 14.2664 10.3895C13.11 10.0436 11.6598 9.88137 9.91447 9.9028C9.65271 9.92423 9.40205 9.93525 9.16189 9.93525C8.94396 9.93525 8.71491 9.93525 8.47475 9.93525L8.50747 9.9028Z" fill="#3F4759"/>
<path d="M25.3681 0.00585938H29.8836L28.6075 6.20361H32.6649C34.8899 6.24708 36.5476 6.70137 37.6385 7.56647C38.751 8.43157 39.0782 10.0761 38.6201 12.4987L36.4278 23.3042H31.8468L33.941 12.9855C34.1589 11.9036 34.0935 11.1359 33.7447 10.6816C33.3958 10.2273 32.6433 10.0001 31.4869 10.0001L27.8549 9.9677L25.1718 23.3042H20.6562L25.3681 0.00585938Z" fill="#3F4759"/>
<path d="M43.4721 6.20361H52.2413C54.8152 6.22504 56.6803 6.96096 57.8366 8.41014C58.993 9.85933 59.3745 11.8387 58.9819 14.3483C58.8294 15.495 58.491 16.6197 57.9675 17.723C57.4656 18.8263 56.7679 19.8212 55.8734 20.7083C54.7824 21.833 53.6156 22.5469 52.3722 22.8499C51.1288 23.153 49.8416 23.3042 48.5111 23.3042H44.5846L43.3412 29.4695H38.793L43.4721 6.20361ZM47.3004 9.9028L45.3372 19.6375C45.4681 19.6589 45.5989 19.6699 45.7298 19.6699C45.8823 19.6699 46.0354 19.6699 46.1879 19.6699C48.2821 19.6914 50.0274 19.4863 51.4233 19.0534C52.8192 18.5991 53.7576 17.0201 54.2373 14.3159C54.63 12.0444 54.2373 10.7354 53.0593 10.3895C51.903 10.0436 50.4528 9.88137 48.7074 9.9028C48.4457 9.92423 48.195 9.93525 47.9549 9.93525C47.7369 9.93525 47.5079 9.93525 47.2677 9.93525L47.3004 9.9028Z" fill="#3F4759"/>
</g>
<defs>
<clipPath id="clip0_2_548">
<rect width="59.2683" height="30" fill="white" transform="translate(0 0.00585938)"/>
</clipPath>
</defs>
</svg>
