<svg xmlns="http://www.w3.org/2000/svg" width="118" height="34" viewBox="0 0 118 34" fill="none"><g clip-path="url(#clip0_2_498)"><path d="M13.334 1.1976C13.57 1.1976 13.688 1.3156 13.924 1.4336C12.508 2.0236 11.092 3.5576 10.384 6.8616L7.788 7.5696C8.614 5.2096 10.266 1.1976 13.334 1.1976ZM14.632 2.3776C14.868 3.0856 15.104 3.9116 15.104 5.2096C15.104 5.3276 15.104 5.3276 15.104 5.4456L11.682 6.3896C12.39 3.9116 13.57 2.8496 14.632 2.3776ZM17.7 4.5016L16.166 4.9736C16.166 4.8556 16.166 4.7376 16.166 4.6196C16.166 3.5576 16.048 2.7316 15.812 2.0236C16.638 2.2596 17.346 3.3216 17.7 4.5016ZM25.37 6.3896C25.37 6.2716 25.252 6.1536 25.134 6.1536C24.898 6.1536 22.42 5.9176 22.42 5.9176C22.42 5.9176 20.65 4.1476 20.414 4.0296C20.178 3.7936 19.824 3.9116 19.706 3.9116C19.706 3.9116 19.352 4.0296 18.762 4.2656C18.172 2.6136 17.11 1.0796 15.34 1.0796H15.222C14.75 0.371601 14.042 0.135601 13.452 0.135601C9.204 0.0176013 7.198 5.3276 6.49 8.0416C5.546 8.2776 4.602 8.6316 3.54 8.9856C2.596 9.2216 2.596 9.3396 2.478 10.1656C2.36 10.7556 0 29.3996 0 29.3996L18.762 32.9396L28.91 30.6976C28.91 30.6976 25.37 6.6256 25.37 6.3896Z" fill="#8DB849"></path><path d="M25.0157 6.15362C24.8977 6.15362 22.4197 5.91762 22.4197 5.91762C22.4197 5.91762 20.6497 4.14762 20.4137 4.02962C20.2957 3.91162 20.2957 3.91162 20.1777 3.91162L18.7617 32.9396L28.9097 30.6976C28.9097 30.6976 25.3697 6.62562 25.3697 6.38962C25.3697 6.27162 25.1337 6.15362 25.0157 6.15362Z" fill="#5A863E"></path><path d="M15.3412 11.8177L14.0432 15.5937C14.0432 15.5937 12.9812 15.0037 11.5652 15.0037C9.55919 15.0037 9.44119 16.1837 9.44119 16.5377C9.44119 18.1897 13.9252 18.8977 13.9252 22.9097C13.9252 26.0957 11.9192 28.1017 9.20519 28.1017C6.01919 28.1017 4.36719 26.0957 4.36719 26.0957L5.19319 23.2637C5.19319 23.2637 6.84519 24.6797 8.26119 24.6797C9.20519 24.6797 9.55919 23.9717 9.55919 23.3817C9.55919 21.1397 5.90119 21.0217 5.90119 17.3637C5.90119 14.2957 8.14319 11.3457 12.5092 11.3457C14.5152 11.2277 15.3412 11.8177 15.3412 11.8177Z" fill="#FFFFFE"></path><path d="M40.8269 18.7796C39.7649 18.1896 39.2929 17.7176 39.2929 17.1276C39.2929 16.3016 40.0009 15.8296 41.1809 15.8296C42.4789 15.8296 43.6589 16.4196 43.6589 16.4196L44.6029 13.5876C44.6029 13.5876 43.7769 12.8796 41.2989 12.8796C37.7589 12.8796 35.3989 14.8856 35.3989 17.7176C35.3989 19.3696 36.5789 20.5496 37.9949 21.3756C39.1749 22.0836 39.6469 22.5556 39.6469 23.2636C39.6469 23.9716 39.0569 24.6796 37.8769 24.6796C36.2249 24.6796 34.5729 23.8536 34.5729 23.8536L33.6289 26.6856C33.6289 26.6856 35.0449 27.6296 37.5229 27.6296C41.0629 27.6296 43.6589 25.8596 43.6589 22.6736C43.6589 20.9036 42.3609 19.6056 40.8269 18.7796ZM55.1049 12.7616C53.3349 12.7616 51.9189 13.5876 50.8569 14.8856L52.3909 6.86157H48.3789L44.4849 27.2756H48.4969L49.7949 20.3136C50.2669 17.7176 51.6829 16.0656 52.9809 16.0656C53.9249 16.0656 54.2789 16.6556 54.2789 17.5996C54.2789 18.1896 54.2789 18.7796 54.1609 19.3696L52.6269 27.3936H56.6389L58.1729 19.1336C58.2909 18.3076 58.4089 17.2456 58.4089 16.5376C58.4089 14.1776 57.2289 12.7616 55.1049 12.7616ZM65.3709 24.4436C63.9549 24.4436 63.4829 23.2636 63.4829 21.8476C63.4829 19.6056 64.6629 15.8296 66.7869 15.8296C68.2029 15.8296 68.6749 17.0096 68.6749 18.1896C68.6749 20.7856 67.4949 24.4436 65.3709 24.4436ZM67.3769 12.7616C62.5389 12.7616 59.3529 17.1276 59.3529 21.9656C59.3529 25.0336 61.2409 27.5116 64.8989 27.5116C69.6189 27.5116 72.8049 23.2636 72.8049 18.3076C72.8049 15.4756 71.1529 12.7616 67.3769 12.7616ZM79.1769 24.5616C78.1149 24.5616 77.5249 23.9716 77.5249 23.9716L78.2329 20.1956C78.7049 17.7176 80.0029 16.0656 81.4189 16.0656C82.5989 16.0656 83.0709 17.2456 83.0709 18.3076C82.9529 20.9036 81.4189 24.5616 79.1769 24.5616ZM83.0709 12.7616C80.3569 12.7616 78.8229 15.1216 78.8229 15.1216L79.0589 12.9976H75.5189C75.4009 14.4136 75.0469 16.6556 74.6929 18.3076L71.8609 32.9396H75.8729L76.9349 27.0396H77.0529C77.0529 27.0396 77.8789 27.5116 79.4129 27.5116C84.1329 27.5116 87.2009 22.6736 87.2009 17.8356C87.2009 15.2396 86.0209 12.7616 83.0709 12.7616ZM92.8649 7.09757C91.5669 7.09757 90.6229 8.15957 90.6229 9.45757C90.6229 10.6376 91.3309 11.4636 92.5109 11.4636C93.8089 11.4636 94.8709 10.6376 94.8709 9.10357C94.8709 7.92357 94.0449 7.09757 92.8649 7.09757ZM87.3189 27.2756H91.3309L94.0449 13.1156H90.0329L87.3189 27.2756ZM104.193 13.1156H101.361L101.479 12.4076C101.715 10.9916 102.541 9.81157 103.839 9.81157C104.547 9.81157 105.137 10.0476 105.137 10.0476L105.963 6.86157C105.963 6.86157 105.255 6.50757 103.839 6.50757C102.423 6.50757 101.007 6.86157 99.9449 7.80557C98.5289 8.98557 97.9389 10.6376 97.5849 12.2896L97.4669 12.9976H95.5789L94.9889 16.0656H96.8769L94.7529 27.2756H98.7649L100.889 16.0656H103.603L104.193 13.1156ZM113.751 13.1156C113.751 13.1156 111.273 19.3696 110.093 22.7916C109.975 21.7296 109.149 13.1156 109.149 13.1156H104.901L107.261 26.0956C107.261 26.3316 107.261 26.5676 107.143 26.8036C106.671 27.7476 105.845 28.5736 105.019 29.1636C104.311 29.7536 103.367 30.1076 102.777 30.3436L103.839 33.7656C104.665 33.6476 106.317 32.9396 107.733 31.6416C109.503 29.9896 111.273 27.2756 112.925 23.7356L117.763 13.2336L113.751 13.1156Z" fill="#1A1919"></path></g><defs><clipPath id="clip0_2_498"><rect width="118" height="33.748" fill="white" transform="translate(0 0.0175781)"></rect></clipPath></defs></svg>