<svg xmlns="http://www.w3.org/2000/svg" width="129" height="41" viewBox="0 0 129 41" fill="none"><g clip-path="url(#clip0_2_535)"><path d="M39.997 11.0967C39.9946 10.6945 39.9902 10.2924 39.9791 9.88963C39.9557 9.01354 39.9039 8.1295 39.7481 7.26277C39.5901 6.38257 39.3319 5.56413 38.9248 4.76455C38.5252 3.97932 38.0028 3.26076 37.3797 2.63763C36.7567 2.01451 36.0382 1.49221 35.2526 1.09242C34.4537 0.685826 33.6351 0.427606 32.7557 0.269602C31.8885 0.113417 31.0045 0.0619619 30.1277 0.0382546C29.7252 0.0273439 29.323 0.0227641 28.9206 0.0202721C28.4429 0.0175781 27.965 0.0175781 27.4875 0.0175781H16.8989H12.5123C12.0344 0.0175781 11.5569 0.0175781 11.0794 0.0203395C10.6769 0.0228314 10.2742 0.0274112 9.87229 0.038322C9.65313 0.0442488 9.4335 0.0519267 9.21374 0.0625007C8.55451 0.09429 7.89428 0.152548 7.24422 0.26967C6.58465 0.388206 5.95924 0.563047 5.3508 0.8146C5.14801 0.898384 4.94704 0.990788 4.74728 1.09242C4.1581 1.39226 3.6065 1.761 3.10481 2.18949C2.93758 2.33234 2.77587 2.48179 2.62016 2.63757C1.9969 3.26069 1.47453 3.97925 1.07494 4.76448C0.667876 5.56407 0.409925 6.3825 0.251787 7.2627C0.096208 8.12943 0.0444831 9.01347 0.0209105 9.88956C0.00986511 10.2923 0.00521795 10.6944 0.00259129 11.0967C-0.000439468 11.5745 -3.53672e-05 12.0523 -3.53672e-05 12.53V19.0507V27.5049C-3.53672e-05 27.983 -0.000506819 28.4604 0.00259129 28.9385C0.00521795 29.3408 0.00986511 29.7428 0.0209105 30.1449C0.0444831 31.0215 0.0961407 31.9057 0.251787 32.772C0.409925 33.652 0.667876 34.4712 1.07494 35.2705C1.47453 36.056 1.9969 36.7743 2.62016 37.3972C3.24294 38.0206 3.9617 38.5428 4.74734 38.9429C5.54632 39.3495 6.36482 39.6074 7.24442 39.7654C8.11108 39.9214 8.99579 39.9733 9.87235 39.9967C10.2743 40.0074 10.6769 40.0122 11.0795 40.0145C11.557 40.0179 12.0344 40.0174 12.5124 40.0174H27.4875C27.965 40.0174 28.4429 40.0179 28.9205 40.0145C29.3229 40.0122 29.7251 40.0074 30.1276 39.9967C31.0044 39.9733 31.8884 39.9213 32.7556 39.7654C33.635 39.6074 34.4536 39.3495 35.2525 38.9429C36.0381 38.5429 36.7567 38.0206 37.3796 37.3972C38.0028 36.7743 38.5252 36.056 38.9247 35.2705C39.3318 34.4712 39.5901 33.652 39.7481 32.772C39.9038 31.9057 39.9556 31.0215 39.979 30.1449C39.9901 29.7428 39.9945 29.3408 39.9969 28.9385C40 28.4604 39.9998 27.983 39.9998 27.5049V12.53C39.9998 12.0523 40 11.5745 39.997 11.0967Z" fill="#F05138"></path><path d="M31.6959 24.7086C31.695 24.7074 31.6941 24.7065 31.6931 24.7053C31.7373 24.5547 31.783 24.4051 31.8217 24.2507C33.4819 17.6363 29.4301 9.8163 22.5735 5.69885C25.5782 9.77212 26.9067 14.7058 25.7264 19.0204C25.6211 19.4052 25.4945 19.7746 25.3546 20.1335C25.2028 20.0338 25.0116 19.9206 24.7547 19.7789C24.7547 19.7789 17.9342 15.5677 10.5419 8.11915C10.348 7.92363 14.4838 14.0305 19.1775 18.9894C16.9661 17.7483 10.8033 13.2644 6.90185 9.69353C7.38118 10.4929 7.9513 11.2626 8.57799 12.0037C11.8361 16.1356 16.085 21.2336 21.1754 25.1484C17.5988 27.3371 12.545 27.5073 7.51325 25.1507C6.26869 24.5674 5.09868 23.8637 4.01562 23.0641C6.14557 26.471 9.426 29.4104 13.4186 31.1264C18.1799 33.1726 22.9147 33.0339 26.4411 31.16L26.4384 31.164C26.4545 31.1538 26.4749 31.1427 26.4916 31.1324C26.6365 31.0546 26.7802 30.9753 26.9207 30.8916C28.6151 30.0121 31.9617 29.1199 33.758 32.6149C34.1979 33.4703 35.1327 28.9374 31.6959 24.7086Z" fill="white"></path><path d="M55.1794 25.9759C55.4919 28.7509 58.1386 30.5703 61.8143 30.5703C65.3067 30.5703 67.8246 28.7509 67.8246 26.2334C67.8246 24.0645 66.2993 22.7406 62.7884 21.8588L59.3883 20.995C54.4994 19.7819 52.2937 17.5761 52.2937 13.9373C52.2937 9.45277 56.2085 6.34631 61.7778 6.34631C67.1811 6.34631 71.0225 9.47082 71.1513 13.9742H67.5674C67.2914 11.2172 65.0492 9.52578 61.686 9.52578C58.3589 9.52578 56.0432 11.2353 56.0432 13.7347C56.0432 15.6829 57.4771 16.8412 61.0059 17.7418L63.8363 18.4768C69.3134 19.8188 71.5557 21.9507 71.5557 25.7922C71.5557 30.6811 67.6773 33.7507 61.5018 33.7507C55.7675 33.7507 51.8526 30.6992 51.5586 25.976H55.1794V25.9759Z" fill="black"></path><path d="M94.3205 33.3093H90.7178L86.5089 18.6424H86.4355L82.245 33.3093H78.6427L73.3125 14.1022H76.8045L80.5171 29.5229H80.5909L84.7814 14.1022H88.163L92.3904 29.5229H92.4642L96.1769 14.1022H99.6319L94.3205 33.3093Z" fill="black"></path><path d="M101.961 8.93752C101.961 7.78011 102.917 6.84253 104.075 6.84253C105.251 6.84253 106.207 7.78011 106.207 8.93752C106.207 10.0957 105.251 11.0514 104.075 11.0514C102.917 11.0514 101.961 10.0958 101.961 8.93752ZM102.329 14.1021H105.839V33.3093H102.329V14.1021Z" fill="black"></path><path d="M128.764 16.933V14.1022H125.051V9.50773H121.559V14.1022H118.71H114.848V12.4115C114.866 10.7021 115.528 9.98511 117.109 9.98511C117.623 9.98511 118.138 10.0409 118.561 10.1139V7.35691C117.936 7.26504 117.366 7.21008 116.705 7.21008C112.955 7.21008 111.375 8.77274 111.375 12.3566V14.1022H108.691V16.933H111.375V33.3093H114.867V16.933H118.71H121.559V28.2735C121.559 31.9862 122.974 33.4192 126.65 33.4192C127.44 33.4192 128.341 33.3642 128.745 33.2724V30.4055C128.506 30.4424 127.808 30.4973 127.422 30.4973C125.786 30.4973 125.051 29.7254 125.051 27.9979V16.933H128.764Z" fill="black"></path></g><defs><clipPath id="clip0_2_535"><rect width="128.764" height="40" fill="white" transform="translate(0 0.0175781)"></rect></clipPath></defs></svg>