<svg xmlns="http://www.w3.org/2000/svg" width="138" height="29" viewBox="0 0 138 29" fill="none"><g clip-path="url(#clip0_2_491)"><path fill-rule="evenodd" clip-rule="evenodd" d="M0.350954 2.68462C0.97969 1.12736 2.58987 0.0172245 4.27672 0.0172245C16.9588 0.0172245 29.6255 0.0172245 42.3076 0.0172245C43.4117 -0.0136125 44.5159 0.402687 45.3133 1.15819C46.2487 1.99079 46.7701 3.23969 46.7394 4.48859C46.7394 9.37625 46.7548 14.2639 46.7394 19.1516C46.7241 21.3564 44.8072 23.33 42.6143 23.3917C37.9985 23.4071 33.3673 23.3917 28.7361 23.4071C29.3495 24.9489 29.9782 26.4754 30.607 28.0172C27.8467 26.4908 25.1324 24.9181 22.3567 23.4225C16.2687 23.3762 10.196 23.4225 4.10804 23.3917C1.91513 23.33 -0.00175174 21.3564 -0.00175174 19.1516C-0.00175174 14.3718 0.0135833 9.57669 -0.00175174 4.79696C-0.0170868 4.07229 0.0442533 3.34762 0.350954 2.68462Z" fill="#9C5C8F"></path><path fill-rule="evenodd" clip-rule="evenodd" d="M18.9369 3.03951C19.6423 2.284 20.9765 2.53069 21.4825 3.37871C21.7586 3.82585 21.7892 4.42717 21.5592 4.88973C20.5778 6.81704 20.1791 8.97563 19.7957 11.088C19.351 13.8479 18.9829 16.6386 19.1209 19.4448C19.167 20.154 18.8142 21.0329 18.0475 21.1871C17.3267 21.3413 16.6673 20.8787 16.2226 20.3545C14.1524 18.1188 12.9869 15.2201 12.1435 12.3214C11.2847 14.0175 10.426 15.7135 9.59789 17.425C9.04583 18.5814 8.43243 19.7686 7.49699 20.6783C7.09828 21.0637 6.43887 21.4184 5.94815 21.0175C5.19674 20.3545 4.99738 19.2906 4.67534 18.3655C3.44854 14.1254 2.75846 9.76197 2.05305 5.41395C1.88437 4.68928 2.19107 3.82585 2.91182 3.5329C3.49455 3.31704 4.23063 3.2862 4.73668 3.71792C5.08939 4.02629 5.1814 4.50426 5.24274 4.9514C5.7488 8.31263 6.33153 11.6739 7.14429 14.9734C8.52444 12.3369 9.90459 9.68488 11.2847 7.04832C11.4841 6.66285 11.7295 6.27739 12.1128 6.03069C12.6189 5.70691 13.3703 5.72232 13.7844 6.18488C14.1371 6.55492 14.2597 7.07915 14.3518 7.57254C14.7658 9.76197 15.3179 11.9206 16.1306 13.9866C16.4833 10.8721 16.9127 7.71131 18.0475 4.76638C18.2929 4.16506 18.5229 3.54832 18.9369 3.03951ZM26.7271 4.7047C28.2146 4.51968 29.8248 5.01307 30.8369 6.15404C31.665 7.09457 32.1251 8.31263 32.2784 9.56153C32.5391 11.6739 32.1557 13.8787 31.1436 15.7444C30.5762 16.8082 29.8248 17.8413 28.7667 18.4734C27.2178 19.414 25.1476 19.306 23.6601 18.3038C22.464 17.4866 21.7892 16.0836 21.5285 14.6805C20.9765 11.5197 21.9119 8.00426 24.2889 5.79942C24.9789 5.21351 25.8224 4.81263 26.7271 4.7047ZM27.0338 7.95801C26.3131 8.18928 25.8684 8.85228 25.485 9.46902C24.5189 11.0263 24.2429 13.0924 25.0096 14.7884C25.209 15.2355 25.5463 15.6981 26.0524 15.806C26.6044 15.8985 27.1105 15.5747 27.5092 15.2355C28.3986 14.48 28.828 13.3391 29.0427 12.2135C29.2881 10.9338 29.1654 9.51528 28.414 8.43598C28.1226 7.97343 27.5399 7.77298 27.0338 7.95801ZM38.6885 4.7047C40.1453 4.51968 41.7248 4.98224 42.7522 6.06153C43.6723 7.04832 44.1631 8.37431 44.3011 9.7003C44.5158 11.751 44.1477 13.8633 43.1816 15.6827C42.5989 16.7774 41.8321 17.8413 40.7587 18.4734C39.2712 19.3677 37.3083 19.2906 35.8515 18.3963C34.8547 17.795 34.1953 16.762 33.8119 15.6827C32.7691 12.3831 33.6432 8.49765 36.0508 5.99986C36.7409 5.33686 37.6763 4.84347 38.6885 4.7047ZM38.9952 7.95801C38.2131 8.23554 37.7377 8.99105 37.339 9.66946C36.4649 11.2267 36.2349 13.2311 37.0323 14.8809C37.247 15.3281 37.6303 15.7906 38.1671 15.8214C38.7498 15.8369 39.2559 15.4668 39.6699 15.0814C40.5593 14.2025 40.958 12.9536 41.0961 11.7355C41.2494 10.5946 41.0501 9.37651 40.3906 8.42056C40.0993 7.97343 39.5012 7.77298 38.9952 7.95801Z" fill="white"></path><path fill-rule="evenodd" clip-rule="evenodd" d="M54.6362 5.15196C55.909 4.87443 57.2432 4.90526 58.516 5.19822C58.516 6.24667 58.516 7.27971 58.516 8.32817C57.4732 8.08148 56.3231 7.83478 55.311 8.32817C54.1148 8.91408 53.4554 10.2863 53.4401 11.5969C53.3788 12.9075 53.8081 14.3568 54.9583 15.0969C56.0164 15.8061 57.3659 15.652 58.5313 15.3128C58.5313 16.3458 58.5313 17.3943 58.5313 18.4273C56.9978 18.8744 55.3263 18.8128 53.8235 18.2577C52.0293 17.5793 50.5878 16.022 50.051 14.1718C49.637 12.7687 49.5757 11.2423 49.913 9.82377C50.4344 7.52641 52.3513 5.66077 54.6362 5.15196ZM63.9753 4.99778C65.5394 4.82817 67.2416 5.05945 68.4991 6.07707C69.7259 7.03302 70.324 8.55945 70.5387 10.055C70.7534 11.6894 70.7073 13.4009 70.2013 14.989C69.7719 16.3304 68.8671 17.5793 67.579 18.196C66.2602 18.8128 64.7267 18.859 63.3312 18.5506C62.0277 18.2577 60.8929 17.3943 60.2488 16.2224C59.3594 14.6498 59.1907 12.7841 59.2674 11.011C59.3441 9.48456 59.7275 7.88104 60.7549 6.69381C61.5523 5.72245 62.7331 5.13654 63.9753 4.99778ZM64.4507 7.97355C63.7759 8.14315 63.3925 8.80615 63.2238 9.4383C62.8865 10.6718 62.9478 11.9824 63.0245 13.2621C63.1012 13.9405 63.1778 14.7114 63.6686 15.2357C64.3126 15.9757 65.6161 15.8678 66.1989 15.1123C66.5976 14.6343 66.6896 13.9868 66.7816 13.3854C66.9043 12.3216 66.9349 11.2269 66.7816 10.163C66.6742 9.53082 66.4902 8.8524 66.0302 8.37443C65.6315 7.95813 65.0027 7.83478 64.4507 7.97355ZM125.806 5.19822C127.14 4.84359 128.536 4.90527 129.87 5.1828C129.901 6.23126 129.87 7.2643 129.885 8.31275C128.873 8.06606 127.754 7.83478 126.757 8.28192C125.607 8.80615 124.917 10.0396 124.825 11.2731C124.687 12.6608 125.055 14.2489 126.266 15.0506C127.324 15.7907 128.704 15.6365 129.87 15.2973C129.855 16.3458 129.901 17.3943 129.839 18.4427C128.198 18.8744 126.42 18.8128 124.871 18.1343C123.153 17.3788 121.834 15.837 121.344 14.0176C120.96 12.6299 120.93 11.1343 121.267 9.73126C121.834 7.55725 123.644 5.7687 125.806 5.19822ZM72.6089 5.30615C74.0811 5.30615 75.5686 5.30615 77.0407 5.30615C77.5775 7.71143 78.0835 10.1321 78.5282 12.5683C78.9576 10.1321 79.525 7.71143 80.0924 5.30615C81.6106 5.30615 83.1287 5.30615 84.6469 5.30615C85.2296 9.66958 85.8277 14.033 86.4104 18.3965C85.245 18.3965 84.0948 18.3965 82.9294 18.3965C82.6073 15.4053 82.316 12.4141 81.9786 9.42289C81.2732 12.4141 80.5371 15.4053 79.8164 18.3965C79.0189 18.3965 78.2369 18.3965 77.4394 18.3965C76.688 15.4053 75.9366 12.3987 75.1699 9.40747C74.8785 12.3987 74.5718 15.4053 74.2804 18.3965C73.1763 18.3965 72.0568 18.3965 70.9527 18.3965C71.4894 14.033 72.0568 9.66958 72.6089 5.30615ZM88.5267 5.30615C89.9988 5.30615 91.4863 5.30615 92.9738 5.30615C93.5106 7.71143 94.0166 10.1321 94.4613 12.5528C94.8907 10.1167 95.4581 7.71143 96.0255 5.30615C97.5437 5.30615 99.0465 5.30615 100.565 5.30615C101.147 9.66958 101.745 14.033 102.328 18.3965C101.163 18.3965 100.013 18.3965 98.8472 18.3965C98.5251 15.4053 98.2184 12.4141 97.9117 9.42289C97.191 12.4141 96.4856 15.4053 95.7495 18.3965C94.9521 18.3965 94.17 18.3965 93.3726 18.3965C92.6211 15.4053 91.8544 12.3987 91.103 9.40747C90.7963 12.3987 90.5049 15.4053 90.1982 18.3965C89.0941 18.3965 87.9746 18.3965 86.8705 18.3965C87.4072 14.033 87.9746 9.66958 88.5267 5.30615ZM103.294 5.33698C105.671 5.29073 108.048 5.33698 110.425 5.32156C110.425 6.24668 110.425 7.17178 110.425 8.11231C109.229 8.12773 108.033 8.11231 106.821 8.11231C106.821 8.91408 106.821 9.71584 106.821 10.5022C107.864 10.5022 108.892 10.5022 109.934 10.5022C109.934 11.4119 109.934 12.3061 109.934 13.2158C108.892 13.2158 107.864 13.2158 106.821 13.2158C106.821 14.0176 106.821 14.8194 106.821 15.6057C108.018 15.6057 109.229 15.6057 110.44 15.6057C110.44 16.5308 110.44 17.4713 110.44 18.3965C108.064 18.3965 105.687 18.3965 103.31 18.3965C103.31 14.0639 103.34 9.70042 103.294 5.33698ZM111.453 5.30615C112.94 5.30615 114.428 5.29073 115.915 5.32156C117.311 5.36782 118.798 5.72245 119.856 6.70923C120.807 7.58808 121.129 9.03742 120.761 10.2555C120.47 11.2577 119.718 12.0594 118.798 12.5066C119.733 14.4647 120.669 16.4383 121.604 18.3965C120.362 18.3965 119.135 18.3965 117.893 18.3965C116.927 16.392 115.976 14.3722 114.995 12.3678C114.964 14.3722 114.995 16.3766 114.98 18.3965C113.799 18.3965 112.633 18.3965 111.453 18.3965C111.453 14.033 111.453 9.66958 111.453 5.30615ZM114.964 7.81936C114.964 8.8524 114.964 9.90086 114.964 10.9493C115.593 10.9031 116.298 10.8722 116.835 10.4868C117.464 10.0396 117.387 9.06826 117.004 8.48236C116.498 7.88104 115.654 7.88104 114.964 7.81936ZM130.867 5.30615C133.244 5.30615 135.605 5.30615 137.982 5.30615C137.982 6.23126 137.982 7.17179 137.982 8.0969C136.786 8.0969 135.575 8.0969 134.378 8.0969C134.378 8.89866 134.378 9.685 134.378 10.4868C135.421 10.4868 136.449 10.4868 137.491 10.4868C137.491 11.3965 137.491 12.3061 137.491 13.2004C136.449 13.2004 135.421 13.2004 134.378 13.2004C134.378 14.0022 134.378 14.8039 134.378 15.5903C135.59 15.5903 136.801 15.5903 138.013 15.5903C138.013 16.5154 138.013 17.4559 138.013 18.381C135.636 18.381 133.259 18.381 130.882 18.381C130.867 14.033 130.867 9.66958 130.867 5.30615Z" fill="black"></path></g><defs><clipPath id="clip0_2_491"><rect width="138" height="28" fill="white" transform="translate(0 0.0175781)"></rect></clipPath></defs></svg>