<svg width="138" height="32" viewBox="0 0 138 32" fill="none" xmlns="http://www.w3.org/2000/svg">
<g clip-path="url(#clip0_2_291)">
<path d="M80.0362 12.2196H74.6039V12.7901C76.3031 12.7901 76.5763 13.1507 76.5763 15.2841V19.1302C76.5763 21.2633 76.3033 21.654 74.6039 21.654C73.2993 21.4738 72.4189 20.7826 71.205 19.4606L69.8092 17.9585C71.6906 17.6275 72.6918 16.4561 72.6918 15.1338C72.6918 13.4816 71.2658 12.2196 68.595 12.2196H63.2539V12.7901C64.9531 12.7901 65.2263 13.1507 65.2263 15.2841V19.1302C65.2263 21.2633 64.9531 21.654 63.2539 21.654V22.2248H69.2929V21.654C67.5937 21.654 67.3206 21.2633 67.3206 19.1302V18.0488H67.8363L71.205 22.2248H80.0362C84.3758 22.2248 86.2575 19.9416 86.2575 17.207C86.2575 14.4729 84.3761 12.2196 80.0362 12.2196ZM67.3208 17.1167V13.1211H68.5649C69.9303 13.1211 70.5375 14.0524 70.5375 15.1341C70.5375 16.1858 69.9303 17.1169 68.5649 17.1169H67.3208V17.1167ZM80.1275 21.2934H79.9148C78.8226 21.2934 78.6708 21.0232 78.6708 19.641V13.1211C78.6708 13.1211 80.0061 13.1211 80.1275 13.1211C83.2836 13.1211 83.8598 15.4043 83.8598 17.1772C83.8598 19.0097 83.2833 21.2934 80.1275 21.2934Z" fill="#00749A"/>
<path d="M46.352 18.229L48.446 12.0992C49.0532 10.3266 48.78 9.816 46.8378 9.816V9.21484H52.5431V9.816C50.6313 9.816 50.1761 10.2666 49.4174 12.46L45.9574 22.7356H45.5631L42.4673 13.3311L39.3114 22.7356H38.9169L35.5484 12.46C34.82 10.2666 34.3345 9.816 32.5742 9.816V9.21484H39.3114V9.816C37.5208 9.816 37.0349 10.2365 37.6726 12.0992L39.7058 18.229L42.7709 9.21484H43.3477L46.352 18.229Z" fill="#00749A"/>
<path d="M56.671 22.6151C53.3329 22.6151 50.6016 20.1816 50.6016 17.2067C50.6016 14.2624 53.3332 11.8284 56.671 11.8284C60.0093 11.8284 62.7404 14.2624 62.7404 17.2067C62.7404 20.1816 60.0093 22.6151 56.671 22.6151ZM56.671 12.7605C53.8793 12.7605 52.9079 15.2539 52.9079 17.2069C52.9079 19.1903 53.8793 21.6539 56.671 21.6539C59.4936 21.6539 60.4647 19.1903 60.4647 17.2069C60.4647 15.2539 59.4936 12.7605 56.671 12.7605Z" fill="#00749A"/>
<path d="M93.7543 21.6239V22.2248H86.8047V21.6239C88.8381 21.6239 89.2023 21.1133 89.2023 18.1083V13.3013C89.2023 10.2962 88.8381 9.81576 86.8047 9.81576V9.2146H93.0865C96.2122 9.2146 97.9426 10.8071 97.9426 12.9407C97.9426 15.0139 96.2122 16.6363 93.0865 16.6363H91.3566V18.108C91.3566 21.1133 91.7208 21.6239 93.7543 21.6239ZM93.0865 10.2962H91.3566V15.5245H93.0865C94.7862 15.5245 95.5751 14.3528 95.5751 12.9407C95.5751 11.4986 94.7862 10.2962 93.0865 10.2962Z" fill="#464342"/>
<path d="M118.791 19.4006L118.639 19.9413C118.366 20.9329 118.032 21.2934 115.877 21.2934H115.452C113.875 21.2934 113.601 20.9329 113.601 18.7997V17.4178C115.969 17.4178 116.151 17.6278 116.151 19.1904H116.727V14.7133H116.151C116.151 16.2757 115.969 16.4859 113.601 16.4859V13.1211H115.27C117.425 13.1211 117.759 13.4816 118.032 14.4732L118.184 15.0437H118.669L118.457 12.2196H109.535V12.7901C111.234 12.7901 111.507 13.1507 111.507 15.2841V19.1302C111.507 21.0817 111.275 21.5733 109.935 21.6434C108.662 21.4508 107.788 20.7631 106.591 19.4606L105.195 17.9585C107.077 17.6275 108.079 16.4561 108.079 15.1338C108.079 13.4816 106.652 12.2196 103.982 12.2196H98.6406V12.7901C100.34 12.7901 100.613 13.1507 100.613 15.2841V19.1302C100.613 21.2633 100.34 21.654 98.6406 21.654V22.2248H104.68V21.654C102.981 21.654 102.707 21.2633 102.707 19.1302V18.0488H103.223L106.592 22.2248H119.064L119.247 19.4009H118.791V19.4006ZM102.707 17.1167V13.1211H103.951C105.317 13.1211 105.924 14.0524 105.924 15.1341C105.924 16.1858 105.317 17.1169 103.951 17.1169H102.707V17.1167Z" fill="#464342"/>
<path d="M124.95 22.6152C123.736 22.6152 122.673 21.9845 122.218 21.5935C122.067 21.7441 121.794 22.1947 121.733 22.6152H121.156V18.4693H121.763C122.006 20.4522 123.402 21.6239 125.192 21.6239C126.164 21.6239 126.953 21.0832 126.953 20.182C126.953 19.4009 126.255 18.7998 125.011 18.229L123.281 17.4178C122.067 16.8465 121.156 15.8549 121.156 14.5332C121.156 13.091 122.522 11.8594 124.404 11.8594C125.405 11.8594 126.255 12.2199 126.771 12.6404C126.922 12.5202 127.074 12.1895 127.165 11.8287H127.742V15.3745H127.105C126.892 13.9621 126.103 12.7904 124.495 12.7904C123.645 12.7904 122.856 13.2712 122.856 14.0226C122.856 14.8037 123.493 15.2242 124.95 15.8853L126.619 16.6965C128.076 17.3874 128.652 18.4997 128.652 19.4009C128.652 21.2935 126.983 22.6152 124.95 22.6152Z" fill="#464342"/>
<path d="M134.298 22.6152C133.083 22.6152 132.021 21.9845 131.566 21.5935C131.414 21.7441 131.142 22.1947 131.081 22.6152H130.504V18.4693H131.111C131.354 20.4522 132.75 21.6239 134.54 21.6239C135.512 21.6239 136.301 21.0832 136.301 20.182C136.301 19.4009 135.603 18.7998 134.358 18.229L132.628 17.4178C131.414 16.8465 130.504 15.8549 130.504 14.5332C130.504 13.091 131.87 11.8594 133.751 11.8594C134.753 11.8594 135.602 12.2199 136.118 12.6404C136.27 12.5202 136.422 12.1895 136.513 11.8287H137.089V15.3745H136.452C136.24 13.9621 135.451 12.7904 133.842 12.7904C132.993 12.7904 132.203 13.2712 132.203 14.0226C132.203 14.8037 132.841 15.2242 134.298 15.8853L135.966 16.6965C137.423 17.3874 138 18.4997 138 19.4009C138 21.2935 136.331 22.6152 134.298 22.6152Z" fill="#464342"/>
<path d="M2.22656 15.5172C2.22656 20.7804 5.31597 25.3288 9.79586 27.4842L3.38934 10.1057C2.64414 11.7594 2.22656 13.5895 2.22656 15.5172Z" fill="#464342"/>
<path d="M24.7216 14.8462C24.7216 13.2029 24.1254 12.0648 23.6141 11.179C22.9333 10.0837 22.2951 9.15618 22.2951 8.06089C22.2951 6.83858 23.2315 5.70078 24.5504 5.70078C24.61 5.70078 24.6664 5.70811 24.7245 5.7114C22.335 3.54409 19.1516 2.22083 15.655 2.22083C10.963 2.22083 6.83505 4.60421 4.43359 8.21421C4.74869 8.22358 5.04565 8.23015 5.29788 8.23015C6.70267 8.23015 8.87719 8.06139 8.87719 8.06139C9.60118 8.01914 9.68654 9.07193 8.96332 9.15669C8.96332 9.15669 8.23575 9.24145 7.42615 9.28345L12.317 23.6863L15.2561 14.9591L13.1636 9.28294C12.4404 9.24094 11.7553 9.15618 11.7553 9.15618C11.0315 9.11418 11.1164 8.01863 11.8401 8.06089C11.8401 8.06089 14.0581 8.22965 15.3778 8.22965C16.7823 8.22965 18.9571 8.06089 18.9571 8.06089C19.6816 8.01863 19.7667 9.07142 19.0432 9.15618C19.0432 9.15618 18.3141 9.24094 17.506 9.28294L22.3595 23.5767L23.6992 19.1447C24.2798 17.3055 24.7216 15.9845 24.7216 14.8462Z" fill="#464342"/>
<path d="M15.8929 16.6803L11.8633 28.2731C13.0664 28.6233 14.3388 28.8148 15.6573 28.8148C17.2213 28.8148 18.7211 28.5471 20.1172 28.0611C20.0812 28.0042 20.0485 27.9437 20.0216 27.8779L15.8929 16.6803Z" fill="#464342"/>
<path d="M27.4394 9.13782C27.4972 9.56136 27.5299 10.016 27.5299 10.5051C27.5299 11.8544 27.2754 13.3712 26.5087 15.2678L22.4062 27.011C26.3991 24.7057 29.0847 20.423 29.0847 15.5176C29.0849 13.2058 28.4885 11.0319 27.4394 9.13782Z" fill="#464342"/>
<path d="M15.6558 0.0175781C7.02343 0.0175781 0 6.97065 0 15.5172C0 24.0648 7.02343 31.0176 15.6558 31.0176C24.288 31.0176 31.3125 24.0648 31.3125 15.5172C31.3122 6.97065 24.288 0.0175781 15.6558 0.0175781ZM15.6558 30.3071C7.41929 30.3071 0.717856 23.6723 0.717856 15.5172C0.717856 7.36257 7.41903 0.728294 15.6558 0.728294C23.8921 0.728294 30.5931 7.36257 30.5931 15.5172C30.5931 23.6723 23.8921 30.3071 15.6558 30.3071Z" fill="#464342"/>
</g>
<defs>
<clipPath id="clip0_2_291">
<rect width="138" height="31" fill="white" transform="translate(0 0.0175781)"/>
</clipPath>
</defs>
</svg>
